<svg width="150" height="29" viewBox="0 0 150 29" fill="none" xmlns="http://www.w3.org/2000/svg">
<path d="M15.0674 28.5682L11.2695 26.8308L24.2006 0L27.9677 1.73747L15.0674 28.5682ZM27.8805 28.5682L24.0827 26.8308L37.0137 0L40.7808 1.73747L27.8805 28.5682Z" fill="black"/>
<path d="M0 22.4024C0 21.5311 0.312641 20.7828 0.937924 20.1575C1.57346 19.5322 2.34225 19.2196 3.24429 19.2196C4.14634 19.2196 4.90488 19.5322 5.51991 20.1575C6.14519 20.7828 6.45784 21.5311 6.45784 22.4024C6.45784 23.2839 6.14519 24.0476 5.51991 24.6934C4.90488 25.3289 4.14634 25.6467 3.24429 25.6467C2.34225 25.6467 1.57346 25.3289 0.937924 24.6934C0.312641 24.0476 0 23.2839 0 22.4024ZM0 11.7777C0 11.1934 0.143507 10.6604 0.430522 10.1786C0.727788 9.68659 1.12243 9.29195 1.61446 8.99468C2.10649 8.69742 2.64976 8.54878 3.24429 8.54878C4.14634 8.54878 4.90488 8.87167 5.51991 9.51746C6.14519 10.153 6.45784 10.9064 6.45784 11.7777C6.45784 12.649 6.14519 13.4024 5.51991 14.0379C4.90488 14.6735 4.14634 14.9912 3.24429 14.9912C2.34225 14.9912 1.57346 14.6735 0.937924 14.0379C0.312641 13.4024 0 12.649 0 11.7777Z" fill="black"/>
<path d="M113.489 28.883C112.53 28.883 111.708 28.5453 111.024 27.87C110.348 27.1947 110.015 26.3772 110.024 25.4176C110.015 24.4757 110.348 23.6715 111.024 23.0051C111.708 22.3298 112.53 21.9922 113.489 21.9922C114.396 21.9922 115.196 22.3298 115.889 23.0051C116.591 23.6715 116.946 24.4757 116.955 25.4176C116.946 26.0573 116.777 26.6393 116.448 27.1636C116.129 27.6879 115.706 28.1055 115.182 28.4165C114.667 28.7275 114.103 28.883 113.489 28.883Z" fill="black"/>
<path d="M64.5908 1.20039C67.372 1.20039 69.7672 1.74711 71.7754 2.84004C73.7923 3.92406 75.3475 5.48789 76.4404 7.53145C77.5334 9.56626 78.0791 12.0016 78.0791 14.8361C78.0791 17.6792 77.5332 20.1227 76.4404 22.1662C75.3564 24.2099 73.8051 25.7784 71.7881 26.8713C69.7711 27.9553 67.3767 28.4972 64.6045 28.4973H54.5146V22.8713H61.1123V22.8732H64.3506C65.8789 22.8732 67.1721 22.6152 68.2295 22.0998C69.2958 21.5756 70.0996 20.7268 70.6416 19.5539C71.1925 18.3722 71.4687 16.7997 71.4688 14.8361C71.4688 12.8725 71.1924 11.3087 70.6416 10.1447C70.0907 8.97183 69.2783 8.12689 68.2031 7.61153C67.1369 7.08728 65.8216 6.8254 64.2578 6.82539H54.5146V1.20039H64.5908Z" fill="black"/>
<path d="M93.6255 6.68333C92.7505 6.809 91.9709 7.09971 91.2876 7.55736C90.3458 8.18824 89.6222 9.11735 89.1157 10.3435C88.6181 11.5697 88.3687 13.0713 88.3687 14.8484C88.3687 16.6255 88.6181 18.127 89.1157 19.3533C89.6222 20.5794 90.3458 21.5085 91.2876 22.1394C91.9708 22.597 92.7506 22.8868 93.6255 23.0124V28.8347C91.5827 28.701 89.7192 28.1672 88.0356 27.2302C86.0721 26.1373 84.513 24.5514 83.3579 22.4724C82.2117 20.3843 81.6382 17.8428 81.6382 14.8484C81.6382 11.845 82.2117 9.29881 83.3579 7.21068C84.513 5.12286 86.0722 3.53683 88.0356 2.45287C89.7192 1.52349 91.5827 0.994649 93.6255 0.862045V6.68333ZM95.7075 0.862045C97.7374 0.996396 99.5919 1.52597 101.271 2.45287C103.243 3.53683 104.807 5.12279 105.962 7.21068C107.118 9.29881 107.696 11.845 107.696 14.8484C107.696 17.8516 107.117 20.397 105.962 22.4851C104.807 24.5732 103.244 26.1598 101.271 27.2439C99.5919 28.1708 97.7374 28.6994 95.7075 28.8337V23.0115C96.5823 22.8852 97.3578 22.5957 98.0327 22.1394C98.9745 21.5085 99.6943 20.5794 100.192 19.3533C100.698 18.1271 100.952 16.6254 100.952 14.8484C100.952 13.0714 100.698 11.5697 100.192 10.3435C99.6943 9.11734 98.9745 8.18824 98.0327 7.55736C97.3578 7.10098 96.5824 6.81055 95.7075 6.68431V0.862045Z" fill="black"/>
<path d="M127.858 12.1561H138.708V17.5272H127.858V28.4969H121.26V12.1541H127.858V12.1561ZM139.893 6.55841H127.858V6.55939H121.26V1.20001H139.893V6.55841Z" fill="black"/>
<path d="M149.813 28.4969H143.216V11.6649H149.813V28.4969ZM149.813 8.04181H143.216V1.20001H149.813V8.04181Z" fill="black"/>
</svg>
