<svg width="11" height="11" viewBox="0 0 11 11" fill="none" xmlns="http://www.w3.org/2000/svg">
<path d="M10.1845 5.12797C10.2252 5.1686 10.2575 5.21685 10.2795 5.26996C10.3015 5.32307 10.3128 5.38 10.3128 5.4375C10.3128 5.49499 10.3015 5.55192 10.2795 5.60504C10.2575 5.65815 10.2252 5.7064 10.1845 5.74703L5.80953 10.122C5.7689 10.1627 5.72065 10.195 5.66754 10.217C5.61442 10.239 5.55749 10.2503 5.5 10.2503C5.4425 10.2503 5.38557 10.239 5.33246 10.217C5.27935 10.195 5.2311 10.1627 5.19047 10.122L0.815468 5.74703C0.733375 5.66494 0.687256 5.5536 0.687256 5.4375C0.687256 5.3214 0.733375 5.21006 0.815468 5.12797C0.897561 5.04588 1.0089 4.99976 1.125 4.99976C1.2411 4.99976 1.35244 5.04588 1.43453 5.12797L5.5 9.19398L9.56547 5.12797C9.6061 5.08729 9.65435 5.05502 9.70746 5.033C9.76057 5.01099 9.8175 4.99965 9.875 4.99965C9.93249 4.99965 9.98942 5.01099 10.0425 5.033C10.0956 5.05502 10.1439 5.08729 10.1845 5.12797ZM5.19047 5.74703C5.2311 5.78771 5.27935 5.81998 5.33246 5.84199C5.38557 5.86401 5.4425 5.87534 5.5 5.87534C5.55749 5.87534 5.61442 5.86401 5.66754 5.84199C5.72065 5.81998 5.7689 5.78771 5.80953 5.74703L10.1845 1.37203C10.2666 1.28994 10.3127 1.1786 10.3127 1.0625C10.3127 0.946402 10.2666 0.835061 10.1845 0.752968C10.1024 0.670875 9.9911 0.624756 9.875 0.624756C9.7589 0.624756 9.64756 0.670875 9.56547 0.752968L5.5 4.81898L1.43453 0.752968C1.35244 0.670875 1.2411 0.624756 1.125 0.624756C1.0089 0.624756 0.897561 0.670875 0.815468 0.752968C0.733375 0.835061 0.687256 0.946402 0.687256 1.0625C0.687256 1.1786 0.733375 1.28994 0.815468 1.37203L5.19047 5.74703Z" fill="black"/>
</svg>
