<svg width="11" height="11" viewBox="0 0 11 11" fill="none" xmlns="http://www.w3.org/2000/svg">
<path d="M10.1848 5.87203C10.2255 5.8314 10.2577 5.78315 10.2797 5.73004C10.3018 5.67693 10.3131 5.62 10.3131 5.5625C10.3131 5.50501 10.3018 5.44808 10.2797 5.39496C10.2577 5.34185 10.2255 5.2936 10.1848 5.25297L5.80977 0.877969C5.76914 0.837292 5.72089 0.805022 5.66778 0.783005C5.61467 0.760988 5.55774 0.749657 5.50024 0.749657C5.44275 0.749657 5.38582 0.760988 5.33271 0.783005C5.2796 0.805022 5.23134 0.837292 5.19071 0.877969L0.815712 5.25297C0.733619 5.33506 0.6875 5.4464 0.6875 5.5625C0.6875 5.6786 0.733619 5.78994 0.815712 5.87203C0.897805 5.95412 1.00915 6.00024 1.12524 6.00024C1.24134 6.00024 1.35268 5.95412 1.43477 5.87203L5.50024 1.80602L9.56571 5.87203C9.60634 5.91271 9.65459 5.94498 9.70771 5.967C9.76082 5.98901 9.81775 6.00035 9.87524 6.00035C9.93274 6.00035 9.98967 5.98901 10.0428 5.967C10.0959 5.94498 10.1441 5.91271 10.1848 5.87203ZM5.19071 5.25297C5.23134 5.21229 5.2796 5.18002 5.33271 5.15801C5.38582 5.13599 5.44275 5.12466 5.50024 5.12466C5.55774 5.12466 5.61467 5.13599 5.66778 5.15801C5.72089 5.18002 5.76914 5.21229 5.80977 5.25297L10.1848 9.62797C10.2669 9.71006 10.313 9.8214 10.313 9.9375C10.313 10.0536 10.2669 10.1649 10.1848 10.247C10.1027 10.3291 9.99134 10.3752 9.87524 10.3752C9.75915 10.3752 9.64781 10.3291 9.56571 10.247L5.50024 6.18102L1.43477 10.247C1.35268 10.3291 1.24134 10.3752 1.12524 10.3752C1.00915 10.3752 0.897805 10.3291 0.815712 10.247C0.733619 10.1649 0.6875 10.0536 0.6875 9.9375C0.6875 9.8214 0.733619 9.71006 0.815712 9.62797L5.19071 5.25297Z" fill="black"/>
</svg>
