<svg width="13" height="14" viewBox="0 0 13 14" fill="none" xmlns="http://www.w3.org/2000/svg">
<path d="M9.8125 4.0625V13.0625C9.8125 13.2117 9.75324 13.3548 9.64775 13.4602C9.54226 13.5657 9.39918 13.625 9.25 13.625C9.10082 13.625 8.95774 13.5657 8.85225 13.4602C8.74676 13.3548 8.6875 13.2117 8.6875 13.0625V4.0625C8.6875 3.91332 8.74676 3.77024 8.85225 3.66475C8.95774 3.55926 9.10082 3.5 9.25 3.5C9.39918 3.5 9.54226 3.55926 9.64775 3.66475C9.75324 3.77024 9.8125 3.91332 9.8125 4.0625ZM12.0625 0.6875C11.9133 0.6875 11.7702 0.746763 11.6648 0.852252C11.5593 0.957742 11.5 1.10082 11.5 1.25V13.0625C11.5 13.2117 11.5593 13.3548 11.6648 13.4602C11.7702 13.5657 11.9133 13.625 12.0625 13.625C12.2117 13.625 12.3548 13.5657 12.4602 13.4602C12.5657 13.3548 12.625 13.2117 12.625 13.0625V1.25C12.625 1.10082 12.5657 0.957742 12.4602 0.852252C12.3548 0.746763 12.2117 0.6875 12.0625 0.6875ZM6.4375 6.3125C6.28832 6.3125 6.14524 6.37176 6.03975 6.47725C5.93426 6.58274 5.875 6.72582 5.875 6.875V13.0625C5.875 13.2117 5.93426 13.3548 6.03975 13.4602C6.14524 13.5657 6.28832 13.625 6.4375 13.625C6.58668 13.625 6.72976 13.5657 6.83525 13.4602C6.94074 13.3548 7 13.2117 7 13.0625V6.875C7 6.72582 6.94074 6.58274 6.83525 6.47725C6.72976 6.37176 6.58668 6.3125 6.4375 6.3125ZM3.625 9.125C3.47582 9.125 3.33274 9.18426 3.22725 9.28975C3.12176 9.39524 3.0625 9.53832 3.0625 9.6875V13.0625C3.0625 13.2117 3.12176 13.3548 3.22725 13.4602C3.33274 13.5657 3.47582 13.625 3.625 13.625C3.77418 13.625 3.91726 13.5657 4.02275 13.4602C4.12824 13.3548 4.1875 13.2117 4.1875 13.0625V9.6875C4.1875 9.53832 4.12824 9.39524 4.02275 9.28975C3.91726 9.18426 3.77418 9.125 3.625 9.125ZM0.8125 11.9375C0.663316 11.9375 0.520242 11.9968 0.414753 12.1023C0.309263 12.2077 0.25 12.3508 0.25 12.5V13.0625C0.25 13.2117 0.309263 13.3548 0.414753 13.4602C0.520242 13.5657 0.663316 13.625 0.8125 13.625C0.961684 13.625 1.10476 13.5657 1.21025 13.4602C1.31574 13.3548 1.375 13.2117 1.375 13.0625V12.5C1.375 12.3508 1.31574 12.2077 1.21025 12.1023C1.10476 11.9968 0.961684 11.9375 0.8125 11.9375Z" fill="#1E293B"/>
</svg>
