<svg width="16" height="19" viewBox="0 0 16 19" fill="none" xmlns="http://www.w3.org/2000/svg">
<path d="M12.2502 12C11.8333 11.9999 11.4205 12.0834 11.0365 12.2456C10.6524 12.4079 10.3048 12.6455 10.0143 12.9445L6.41269 10.6297C6.69599 9.9032 6.69599 9.0968 6.41269 8.37031L10.0143 6.05547C10.5552 6.60962 11.2827 6.94317 12.0556 6.99143C12.8286 7.03969 13.5919 6.79923 14.1976 6.31668C14.8033 5.83412 15.2083 5.14384 15.334 4.37968C15.4596 3.61551 15.2971 2.8319 14.8779 2.18076C14.4586 1.52962 13.8125 1.05735 13.0649 0.855507C12.3172 0.653665 11.5212 0.736632 10.8312 1.08832C10.1413 1.44002 9.60646 2.03538 9.3305 2.75898C9.05455 3.48258 9.05711 4.28287 9.33769 5.00469L5.73613 7.31953C5.30243 6.87428 4.7458 6.56847 4.13741 6.44121C3.52901 6.31394 2.89648 6.37099 2.32068 6.60508C1.74487 6.83916 1.25196 7.23964 0.904936 7.75531C0.557916 8.27099 0.372559 8.87843 0.372559 9.5C0.372559 10.1216 0.557916 10.729 0.904936 11.2447C1.25196 11.7604 1.74487 12.1608 2.32068 12.3949C2.89648 12.629 3.52901 12.6861 4.13741 12.5588C4.7458 12.4315 5.30243 12.1257 5.73613 11.6805L9.33769 13.9953C9.09641 14.6176 9.06071 15.3008 9.23581 15.9448C9.4109 16.5889 9.7876 17.1599 10.3107 17.5744C10.8339 17.9889 11.476 18.225 12.143 18.2481C12.81 18.2713 13.4669 18.0802 14.0175 17.703C14.5681 17.3258 14.9835 16.7822 15.2028 16.1519C15.4221 15.5215 15.4339 14.8375 15.2363 14.2C15.0387 13.5625 14.6423 13.0049 14.1049 12.6091C13.5676 12.2132 12.9176 11.9998 12.2502 12ZM12.2502 2C12.621 2 12.9835 2.10997 13.2919 2.31599C13.6002 2.52202 13.8405 2.81486 13.9825 3.15747C14.1244 3.50008 14.1615 3.87708 14.0892 4.24079C14.0168 4.60451 13.8382 4.9386 13.576 5.20083C13.3138 5.46305 12.9797 5.64162 12.616 5.71397C12.2523 5.78632 11.8753 5.74919 11.5327 5.60727C11.19 5.46536 10.8972 5.22504 10.6912 4.91669C10.4852 4.60835 10.3752 4.24584 10.3752 3.875C10.3752 3.37772 10.5727 2.90081 10.9244 2.54917C11.276 2.19754 11.7529 2 12.2502 2ZM3.50019 11.375C3.12935 11.375 2.76684 11.265 2.45849 11.059C2.15015 10.853 1.90983 10.5601 1.76791 10.2175C1.626 9.87492 1.58887 9.49792 1.66122 9.1342C1.73356 8.77049 1.91214 8.4364 2.17436 8.17417C2.43659 7.91195 2.77068 7.73337 3.13439 7.66103C3.49811 7.58868 3.87511 7.62581 4.21772 7.76773C4.56033 7.90964 4.85317 8.14996 5.05919 8.45831C5.26522 8.76665 5.37519 9.12916 5.37519 9.5C5.37519 9.99728 5.17764 10.4742 4.82601 10.8258C4.47438 11.1775 3.99747 11.375 3.50019 11.375ZM12.2502 17C11.8793 17 11.5168 16.89 11.2085 16.684C10.9002 16.478 10.6598 16.1851 10.5179 15.8425C10.376 15.4999 10.3389 15.1229 10.4112 14.7592C10.4836 14.3955 10.6621 14.0614 10.9244 13.7992C11.1866 13.5369 11.5207 13.3584 11.8844 13.286C12.2481 13.2137 12.6251 13.2508 12.9677 13.3927C13.3103 13.5346 13.6032 13.775 13.8092 14.0833C14.0152 14.3916 14.1252 14.7542 14.1252 15.125C14.1252 15.6223 13.9276 16.0992 13.576 16.4508C13.2244 16.8025 12.7475 17 12.2502 17Z" fill="black"/>
</svg>
