<svg width="21" height="21" viewBox="0 0 21 21" fill="none" xmlns="http://www.w3.org/2000/svg">
<path d="M14.2497 13.0001C13.8328 12.9999 13.4201 13.0835 13.036 13.2457C12.6519 13.4079 12.3043 13.6456 12.0138 13.9446L8.4122 11.6297C8.6955 10.9033 8.6955 10.0969 8.4122 9.37037L12.0138 7.05553C12.5547 7.60969 13.2822 7.94323 14.0551 7.99149C14.8281 8.03975 15.5914 7.79929 16.1971 7.31674C16.8028 6.83418 17.2078 6.14391 17.3335 5.37974C17.4592 4.61557 17.2966 3.83196 16.8774 3.18082C16.4581 2.52968 15.812 2.05741 15.0644 1.85557C14.3167 1.65373 13.5207 1.73669 12.8307 2.08839C12.1408 2.44008 11.606 3.03544 11.33 3.75904C11.0541 4.48264 11.0566 5.28293 11.3372 6.00475L7.73564 8.31959C7.30194 7.87434 6.74531 7.56853 6.13692 7.44127C5.52852 7.314 4.89599 7.37106 4.32019 7.60514C3.74438 7.83922 3.25147 8.2397 2.90445 8.75537C2.55743 9.27105 2.37207 9.87849 2.37207 10.5001C2.37207 11.1216 2.55743 11.7291 2.90445 12.2447C3.25147 12.7604 3.74438 13.1609 4.32019 13.395C4.89599 13.6291 5.52852 13.6861 6.13692 13.5589C6.74531 13.4316 7.30194 13.1258 7.73564 12.6805L11.3372 14.9954C11.0959 15.6177 11.0602 16.3008 11.2353 16.9449C11.4104 17.5889 11.7871 18.16 12.3102 18.5745C12.8334 18.9889 13.4755 19.225 14.1425 19.2482C14.8095 19.2713 15.4664 19.0803 16.017 18.7031C16.5676 18.3259 16.983 17.7823 17.2023 17.1519C17.4216 16.5216 17.4334 15.8376 17.2358 15.2C17.0383 14.5625 16.6418 14.005 16.1044 13.6091C15.5671 13.2133 14.9171 12.9998 14.2497 13.0001ZM14.2497 3.00006C14.6205 3.00006 14.9831 3.11003 15.2914 3.31606C15.5997 3.52208 15.8401 3.81492 15.982 4.15753C16.1239 4.50014 16.161 4.87714 16.0887 5.24085C16.0163 5.60457 15.8377 5.93866 15.5755 6.20089C15.3133 6.46311 14.9792 6.64169 14.6155 6.71403C14.2518 6.78638 13.8748 6.74925 13.5322 6.60734C13.1896 6.46542 12.8967 6.2251 12.6907 5.91676C12.4847 5.60841 12.3747 5.2459 12.3747 4.87506C12.3747 4.37778 12.5722 3.90087 12.9239 3.54924C13.2755 3.19761 13.7524 3.00006 14.2497 3.00006ZM5.4997 12.3751C5.12886 12.3751 4.76635 12.2651 4.45801 12.0591C4.14966 11.853 3.90934 11.5602 3.76743 11.2176C3.62551 10.875 3.58838 10.498 3.66073 10.1343C3.73307 9.77055 3.91165 9.43646 4.17387 9.17424C4.4361 8.91201 4.77019 8.73344 5.13391 8.66109C5.49762 8.58874 5.87462 8.62587 6.21723 8.76779C6.55984 8.9097 6.85268 9.15002 7.0587 9.45837C7.26473 9.76671 7.3747 10.1292 7.3747 10.5001C7.3747 10.9973 7.17716 11.4743 6.82552 11.8259C6.47389 12.1775 5.99698 12.3751 5.4997 12.3751ZM14.2497 18.0001C13.8789 18.0001 13.5163 17.8901 13.208 17.6841C12.8997 17.478 12.6593 17.1852 12.5174 16.8426C12.3755 16.5 12.3384 16.123 12.4107 15.7593C12.4831 15.3955 12.6617 15.0615 12.9239 14.7992C13.1861 14.537 13.5202 14.3584 13.8839 14.2861C14.2476 14.2137 14.6246 14.2509 14.9672 14.3928C15.3098 14.5347 15.6027 14.775 15.8087 15.0834C16.0147 15.3917 16.1247 15.7542 16.1247 16.1251C16.1247 16.6223 15.9272 17.0993 15.5755 17.4509C15.2239 17.8025 14.747 18.0001 14.2497 18.0001Z" fill="white"/>
</svg>
