<svg width="18" height="14" viewBox="0 0 18 14" fill="none" xmlns="http://www.w3.org/2000/svg">
<path d="M12.9375 4.29789V3.90625C12.9375 2.14281 10.2776 0.8125 6.75 0.8125C3.22242 0.8125 0.5625 2.14281 0.5625 3.90625V6.71875C0.5625 8.18758 2.4082 9.35477 5.0625 9.70422V10.0938C5.0625 11.8572 7.72242 13.1875 11.25 13.1875C14.7776 13.1875 17.4375 11.8572 17.4375 10.0938V7.28125C17.4375 5.82578 15.6502 4.65719 12.9375 4.29789ZM16.3125 7.28125C16.3125 8.21078 14.1476 9.25 11.25 9.25C10.9877 9.25 10.7276 9.24086 10.4709 9.22398C11.9876 8.67133 12.9375 7.77344 12.9375 6.71875V5.43484C15.0377 5.74773 16.3125 6.59711 16.3125 7.28125ZM5.0625 8.56445V6.89172C5.62203 6.96463 6.18574 7.0008 6.75 7C7.31426 7.0008 7.87797 6.96463 8.4375 6.89172V8.56445C7.8788 8.64699 7.31476 8.68812 6.75 8.6875C6.18524 8.68812 5.6212 8.64699 5.0625 8.56445ZM11.8125 5.72945V6.71875C11.8125 7.30867 10.9399 7.94219 9.5625 8.3268V6.68359C10.4702 6.46352 11.2388 6.13586 11.8125 5.72945ZM6.75 1.9375C9.64758 1.9375 11.8125 2.97672 11.8125 3.90625C11.8125 4.83578 9.64758 5.875 6.75 5.875C3.85242 5.875 1.6875 4.83578 1.6875 3.90625C1.6875 2.97672 3.85242 1.9375 6.75 1.9375ZM1.6875 6.71875V5.72945C2.26125 6.13586 3.02977 6.46352 3.9375 6.68359V8.3268C2.56008 7.94219 1.6875 7.30867 1.6875 6.71875ZM6.1875 10.0938V9.80055C6.37242 9.80758 6.55945 9.8125 6.75 9.8125C7.02281 9.8125 7.2893 9.80336 7.55086 9.78789C7.84143 9.89191 8.13741 9.98017 8.4375 10.0523V11.7018C7.06008 11.3172 6.1875 10.6837 6.1875 10.0938ZM9.5625 11.9395V10.2625C10.1219 10.3377 10.6856 10.3753 11.25 10.375C11.8143 10.3758 12.378 10.3396 12.9375 10.2667V11.9395C11.8185 12.1035 10.6815 12.1035 9.5625 11.9395ZM14.0625 11.7018V10.0586C14.9702 9.83852 15.7388 9.51086 16.3125 9.10445V10.0938C16.3125 10.6837 15.4399 11.3172 14.0625 11.7018Z" fill="#1E293B"/>
</svg>
