<svg width="18" height="18" viewBox="0 0 18 18" fill="none" xmlns="http://www.w3.org/2000/svg">
<path d="M6.7644 14.8618V11.5281C6.7644 11.4402 6.7175 11.359 6.64136 11.315L3.75429 9.64816C3.67814 9.60421 3.58434 9.60421 3.5082 9.64816L0.621094 11.315C0.544945 11.359 0.498047 11.4402 0.498047 11.5281V14.8618C0.498047 14.9498 0.544945 15.031 0.621094 15.0749L3.50816 16.7418C3.54623 16.7638 3.5887 16.7748 3.63121 16.7748C3.67371 16.7748 3.71618 16.7638 3.75425 16.7418L6.64132 15.0749C6.7175 15.031 6.7644 14.9498 6.7644 14.8618ZM3.63124 10.1454L6.02612 11.5281L3.63124 12.9108L1.23636 11.5281L3.63124 10.1454ZM0.990234 11.9543L3.38511 13.337V16.1024L0.990234 14.7197V11.9543ZM3.87734 16.1024V13.337L6.27221 11.9543V14.7197L3.87734 16.1024ZM7.59198 10.0953C7.59198 10.8717 8.22356 11.5032 8.99988 11.5032C9.7762 11.5032 10.4078 10.8717 10.4078 10.0953C10.4078 9.31903 9.7762 8.68744 8.99988 8.68744C8.22356 8.68744 7.59198 9.31903 7.59198 10.0953ZM9.91556 10.0953C9.91556 10.6003 9.50476 11.0111 8.99985 11.0111C8.49493 11.0111 8.08413 10.6003 8.08413 10.0953C8.08413 9.59043 8.49493 9.17963 8.99985 9.17963C9.50476 9.17963 9.91556 9.59043 9.91556 10.0953ZM5.98973 5.77615L8.8768 7.44302C8.91488 7.46499 8.95734 7.47599 8.99985 7.47599C9.04235 7.47599 9.08482 7.46499 9.12289 7.44302L12.01 5.77615C12.0861 5.73221 12.133 5.65096 12.133 5.56304V2.22935C12.133 2.14142 12.0861 2.06017 12.01 2.01623L9.12293 0.349365C9.04678 0.30542 8.95298 0.30542 8.87684 0.349365L5.98973 2.01623C5.91359 2.06017 5.86669 2.14142 5.86669 2.22935V5.56304C5.86669 5.65096 5.91359 5.73221 5.98973 5.77615ZM6.35888 2.65558L8.75379 4.03828V6.80367L6.35891 5.42097L6.35888 2.65558ZM9.24598 6.80367V4.03828L11.6409 2.65558V5.42097L9.24598 6.80367ZM8.99988 0.84665L11.3948 2.22935L8.99988 3.61204L6.605 2.22935L8.99988 0.84665ZM17.3787 11.315L14.4916 9.64812C14.4154 9.60418 14.3216 9.60418 14.2455 9.64812L11.3584 11.315C11.2823 11.3589 11.2354 11.4402 11.2354 11.5281V14.8618C11.2354 14.9498 11.2823 15.031 11.3584 15.0749L14.2455 16.7418C14.2836 16.7637 14.326 16.7748 14.3685 16.7748C14.411 16.7748 14.4535 16.7637 14.4916 16.7418L17.3787 15.0749C17.4548 15.031 17.5017 14.9498 17.5017 14.8618V11.5281C17.5017 11.4402 17.4548 11.359 17.3787 11.315ZM14.3685 10.1454L16.7634 11.5281L14.3685 12.9108L11.9736 11.5281L14.3685 10.1454ZM11.7275 11.9543L14.1224 13.337V16.1024L11.7275 14.7197V11.9543ZM14.6146 16.1024V13.337L17.0095 11.9543V14.7197L14.6146 16.1024ZM12.7999 4.45024C12.8797 4.34023 13.0336 4.31569 13.1436 4.3955C14.5644 5.42593 15.5489 6.96496 15.9023 8.68052L16.2221 8.15613C16.2928 8.04008 16.4442 8.00337 16.5603 8.07411C16.6764 8.14488 16.7131 8.2963 16.6423 8.41235L15.9729 9.5101C15.9267 9.5859 15.8458 9.62812 15.7626 9.62812C15.7227 9.62812 15.6823 9.61842 15.6449 9.59799L14.5163 8.98202C14.397 8.91687 14.3531 8.76739 14.4182 8.6481C14.4834 8.52878 14.6329 8.48487 14.7521 8.54998L15.4495 8.93062C15.1487 7.27416 14.2175 5.78231 12.8546 4.79392C12.7446 4.71415 12.7201 4.56028 12.7999 4.45024ZM1.9918 9.35671C2.1738 7.61103 3.01436 5.98892 4.32336 4.82511L3.70936 4.81041C3.57352 4.80714 3.46597 4.69436 3.46924 4.55848C3.47248 4.42264 3.58389 4.31566 3.72117 4.31833L5.00655 4.34913C5.13783 4.35226 5.24351 4.45797 5.24667 4.58928L5.27747 5.87466C5.28074 6.01054 5.1732 6.12332 5.03735 6.12659C5.03531 6.12663 5.03334 6.12666 5.03134 6.12666C4.89813 6.12666 4.78862 6.02035 4.78542 5.88644L4.7664 5.09222C3.48229 6.18094 2.6559 7.73334 2.48132 9.40779C2.46813 9.53429 2.36133 9.62836 2.23687 9.62836C2.22833 9.62836 2.21972 9.62791 2.21107 9.62703C2.07582 9.61293 1.97767 9.49192 1.9918 9.35671ZM11.9887 16.2088C12.0441 16.3329 11.9883 16.4785 11.8642 16.5339C10.2614 17.249 8.43633 17.3322 6.77396 16.7805L7.06822 17.3195C7.13333 17.4389 7.08942 17.5883 6.9701 17.6535C6.9327 17.6739 6.89227 17.6836 6.8524 17.6836C6.76528 17.6836 6.68087 17.6372 6.63619 17.5554L6.02018 16.4268C5.95729 16.3115 5.99596 16.1671 6.10807 16.0988L7.20582 15.4294C7.32184 15.3587 7.47329 15.3954 7.54406 15.5114C7.61483 15.6274 7.57813 15.7789 7.46208 15.8497L6.78377 16.2633C8.36872 16.831 10.1263 16.7705 11.6637 16.0844C11.7878 16.0291 11.9333 16.0847 11.9887 16.2088Z" fill="#1E293B" stroke="#1E293B" stroke-width="0.4"/>
</svg>
