<svg width="16" height="14" viewBox="0 0 16 14" fill="none" xmlns="http://www.w3.org/2000/svg">
<path d="M15.3172 7.4422L9.69219 13.0672C9.57491 13.1845 9.41585 13.2504 9.25 13.2504C9.08415 13.2504 8.92509 13.1845 8.80781 13.0672C8.69054 12.9499 8.62465 12.7909 8.62465 12.625C8.62465 12.4592 8.69054 12.3001 8.80781 12.1828L13.3664 7.62501H1.125C0.95924 7.62501 0.800269 7.55916 0.683058 7.44195C0.565848 7.32474 0.5 7.16577 0.5 7.00001C0.5 6.83425 0.565848 6.67528 0.683058 6.55807C0.800269 6.44086 0.95924 6.37501 1.125 6.37501H13.3664L8.80781 1.8172C8.69054 1.69992 8.62465 1.54086 8.62465 1.37501C8.62465 1.20916 8.69054 1.0501 8.80781 0.932824C8.92509 0.815549 9.08415 0.749664 9.25 0.749664C9.41585 0.749664 9.57491 0.815549 9.69219 0.932824L15.3172 6.55782C15.3753 6.61587 15.4214 6.6848 15.4529 6.76067C15.4843 6.83655 15.5005 6.91788 15.5005 7.00001C15.5005 7.08215 15.4843 7.16348 15.4529 7.23935C15.4214 7.31522 15.3753 7.38415 15.3172 7.4422Z" fill="black"/>
</svg>
